<?xml version="1.0" encoding="utf-8"?>
<!-- Generator: Adobe Illustrator 19.2.1, SVG Export Plug-In . SVG Version: 6.00 Build 0)  -->
<svg version="1.1" id="Layer_1" xmlns="http://www.w3.org/2000/svg" xmlns:xlink="http://www.w3.org/1999/xlink" x="0px" y="0px"
	 viewBox="0 0 424.6 11.7" style="enable-background:new 0 0 424.6 11.7;" xml:space="preserve">
<style type="text/css">
	.st0{opacity:0.7;}
	.st1{fill:#F5EF26;}
	.st2{fill:none;stroke:#FAF797;stroke-width:2.500000e-002;}
	.st3{fill:none;stroke:#F5EF26;stroke-width:2.500000e-002;}
</style>
<g>
	<g>
		<g>
			<g>
				<g class="st0">
					<g>
						<path class="st1" d="M6.5,11.2c0,0-2.3,2.3-2.1-1.7L3.5,6.3L1.3,3.9L2,1.6c0,0,1.5-0.1,11.2-0.3C22.9,1.2,40.8,1,73.6,1
							c0,0,26.2-0.9,61.7-0.3c0,0,64.2,1.1,130.7,2.3C332.5,4,401.5,5,411.1,5.8c0,0-40.2-0.8-81.7-1.5c-41.5-0.8-84.3-1.6-89.3-1.4
							c0,0,38.5,0.9,78.4,1.8c39.9,0.9,81.4,2,87.3,2.6c0,0-37.3-0.6-76.3-1.3c-39-0.6-79.6-1.1-86.3-0.4c0,0,34.3,0.9,70.8,1.8
							c36.4,1,74.9,2.1,83.2,3c0,0-26.4-0.8-33.4-0.7l12.3,0.6L356.3,10l-11.4-0.5c0,0,31,1.4,33.1,1.9c0,0,3.5-0.1,0.1-0.3
							c-3.5-0.2-13.9-0.3-41.9-0.4c0,0-33-1.2-90.8-1.8C187.7,8.4,105.3,8.6,6.5,11.2z"/>
						<path class="st2" d="M0.1,0.6c0,0,79.8-0.1,157.3-0.1c0,0,168.5,2.6,186.5,2.9c0,0,48.8,0.5,77.8,1.7"/>
						<path class="st3" d="M244.5,1.8c-6.8-0.3-35.7-0.7-63-1c-27.2-0.4-52.8-0.7-52.8-0.7c-20.4-0.4-52.6-0.2-79.6,0
							c-27.1,0.3-49,0.5-49,0.5"/>
						<path class="st3" d="M247.8,5.1c0,0,30.1,0.6,63.5,1.2c33.4,0.6,70.1,1.3,83.3,1.7"/>
						<path class="st2" d="M213.8,9.2c0,0,34.7,0.8,70.8,1.6c36.1,0.8,73.7,1.6,79.6,1.9"/>
					</g>
				</g>
			</g>
		</g>
	</g>
</g>
</svg>
