<?xml version="1.0" encoding="UTF-8"?>
<!-- Generator: Adobe Illustrator 18.1.1, SVG Export Plug-In . SVG Version: 6.00 Build 0)  -->
<svg version="1.1" id="Layer_1" xmlns="http://www.w3.org/2000/svg" xmlns:xlink="http://www.w3.org/1999/xlink" x="0px" y="0px" width="16px" height="16px" viewBox="-387 389 16 16" enable-background="new -387 389 16 16" xml:space="preserve">
<g>
	<path fill="#337AB7" d="M-378.1,394.2c-0.9-0.4-1.2-0.3-1.9-0.4c0.9-0.8,1.7-1.8,2.7-2.5c1.2-0.8,2.7-0.5,3.6,0.5   c0.9,1.1,1,2.6,0,3.7c-0.9,1-1.9,2-3,2.9c-1.1,0.9-2.7,0.9-3.7,0c-0.4-0.3-0.5-0.8-0.2-1.1c0.3-0.3,0.7-0.4,1.1-0.1   c0.8,0.5,1.4,0.5,2.1-0.2c0.8-0.7,1.5-1.5,2.3-2.3c0.1-0.1,0.2-0.2,0.2-0.3c0.4-0.6,0.4-1.3-0.1-1.8c-0.5-0.5-1.2-0.5-1.8-0.1   c-0.3,0.3-0.6,0.6-0.9,0.9C-377.8,393.8-378,394-378.1,394.2z"/>
	<path fill="#337AB7" d="M-379.9,399.7c0.5,0.3,1,0.5,1.9,0.4c-0.9,0.8-1.7,1.7-2.6,2.4c-1.2,0.9-2.8,0.6-3.7-0.4   c-0.9-1.1-1-2.7,0-3.8c0.9-1,1.9-2,2.9-2.9c1.1-0.9,2.7-0.9,3.7,0c0.4,0.3,0.5,0.8,0.2,1.1c-0.3,0.3-0.7,0.4-1.1,0.1   c-0.8-0.5-1.4-0.5-2.1,0.2c-0.8,0.7-1.5,1.5-2.3,2.3c-0.1,0.1-0.2,0.2-0.2,0.3c-0.4,0.6-0.4,1.3,0.1,1.8c0.5,0.5,1.2,0.5,1.8,0.1   c0.3-0.3,0.6-0.6,0.9-0.9C-380.2,400.1-380,399.9-379.9,399.7z"/>
</g>
</svg>